<?xml version="1.0" encoding="utf-8"?>
<!-- Generator: Adobe Illustrator 24.3.0, SVG Export Plug-In . SVG Version: 6.00 Build 0)  -->
<svg version="1.1" id="图层_1" xmlns="http://www.w3.org/2000/svg" xmlns:xlink="http://www.w3.org/1999/xlink" x="0px" y="0px"
	 viewBox="0 0 600 600" style="enable-background:new 0 0 600 600;" xml:space="preserve">
<style type="text/css">
	.st0{fill:#FFFFFF;}
	.st1{fill:#58C5DA;}
	.st2{fill:#F9E65B;}
</style>
<g>
	<g>
		<path class="st0" d="M347.8,369.7h-95.6c-1.3,0-2.6,0.1-3.8,0.4c-0.7-2-1.6-3.9-2.5-5.7c-6,5.6-14,8.9-22.4,8.9
			c-5.7,0-11.4-1.5-16.4-4.4c-7.5-4.4-12.9-11.4-15.1-19.8c-1.4-5.4-1.4-10.9-0.1-16.1c-30.7,1.3-55.2,26.7-55.2,57.7
			c0,31.9,25.9,57.8,57.8,57.8c24.6,0,45.7-15.4,54-37.2c1.2,0.2,2.5,0.4,3.8,0.4h95.6c11.6,0,21-9.4,21-21S359.4,369.7,347.8,369.7
			z"/>
		<path class="st0" d="M300,151.5c-31.9,0-57.8,25.9-57.8,57.8c0,13.8,4.8,26.4,12.8,36.3c-0.8,1-1.6,2-2.2,3.1l-47.5,81.6
			c-2.8,4.8-3.6,10.5-2.1,15.9c1.4,5.4,4.9,9.9,9.7,12.8c3.2,1.9,6.8,2.8,10.5,2.8c7.4,0,14.4-4,18.1-10.4l47.5-81.6
			c0.7-1.1,1.2-2.3,1.6-3.5c2.2,0.4,4.5,0.6,6.8,0.7c-1.3-5.2-1.3-10.7,0.1-16.1c2.2-8.4,7.6-15.4,15.1-19.8
			c5-2.9,10.6-4.4,16.4-4.4c8.4,0,16.4,3.3,22.4,8.9c4.1-7.9,6.3-16.8,6.3-26.3C357.8,177.4,331.9,151.5,300,151.5z"/>
		<path class="st0" d="M405.6,332.9c-3.2,0-6.3,0.3-9.3,0.8c-0.4-1.2-1-2.4-1.6-3.5l-47.5-81.6c-3.7-6.4-10.7-10.4-18.1-10.4
			c-3.7,0-7.3,1-10.5,2.8c-4.8,2.8-8.3,7.4-9.7,12.8c-1.4,5.4-0.7,11.1,2.1,15.9l47.5,81.6c0.7,1.1,1.4,2.1,2.3,3.1
			c-1.3,1.6-2.5,3.3-3.7,5.1c13.5,4,23.4,16.4,23.4,31.2c0,14.8-9.9,27.2-23.4,31.2c10.3,16,28.2,26.6,48.6,26.6
			c31.9,0,57.8-25.9,57.8-57.8C463.3,358.8,437.5,332.9,405.6,332.9z"/>
	</g>
</g>
</svg>
