<?xml version="1.0" encoding="utf-8"?>
<!-- Generator: Adobe Illustrator 24.3.0, SVG Export Plug-In . SVG Version: 6.00 Build 0)  -->
<svg version="1.1" id="图层_1" xmlns="http://www.w3.org/2000/svg" xmlns:xlink="http://www.w3.org/1999/xlink" x="0px" y="0px"
	 viewBox="0 0 600 600" style="enable-background:new 0 0 600 600;" xml:space="preserve">
<style type="text/css">
	.st0{fill:#FFFFFF;}
	.st1{fill:#58C5DA;}
	.st2{fill:#F9E65B;}
</style>
<g>
	<g>
		<path class="st1" d="M318.5,281.5h-51.2c-0.7,0-1.4,0.1-2,0.2c-0.4-1-0.9-2.1-1.4-3.1c-3.2,3-7.5,4.8-12,4.8
			c-3.1,0-6.1-0.8-8.8-2.4c-4-2.3-6.9-6.1-8.1-10.6c-0.8-2.9-0.8-5.8-0.1-8.6c-16.4,0.7-29.6,14.3-29.6,30.9
			c0,17.1,13.8,30.9,30.9,30.9c13.2,0,24.4-8.3,28.9-19.9c0.7,0.1,1.3,0.2,2,0.2h51.2c6.2,0,11.2-5,11.2-11.2
			S324.7,281.5,318.5,281.5z"/>
		<path class="st2" d="M292.9,164.6c-17.1,0-30.9,13.8-30.9,30.9c0,7.4,2.6,14.1,6.9,19.4c-0.4,0.5-0.9,1.1-1.2,1.7l-25.4,43.7
			c-1.5,2.6-1.9,5.6-1.1,8.5c0.8,2.9,2.6,5.3,5.2,6.8c1.7,1,3.7,1.5,5.6,1.5c4,0,7.7-2.1,9.7-5.6l25.4-43.7c0.4-0.6,0.6-1.2,0.9-1.9
			c1.2,0.2,2.4,0.3,3.6,0.4c-0.7-2.8-0.7-5.7,0.1-8.6c1.2-4.5,4.1-8.3,8.1-10.6c2.7-1.5,5.7-2.4,8.8-2.4c4.5,0,8.8,1.8,12,4.8
			c2.2-4.2,3.4-9,3.4-14.1C323.8,178.5,310,164.6,292.9,164.6z"/>
		<path class="st1" d="M349.4,261.8c-1.7,0-3.4,0.2-5,0.4c-0.2-0.6-0.5-1.3-0.9-1.9l-25.4-43.7c-2-3.4-5.7-5.6-9.7-5.6
			c-2,0-3.9,0.5-5.6,1.5c-2.6,1.5-4.4,3.9-5.2,6.8c-0.8,2.9-0.4,5.9,1.2,8.5l25.4,43.7c0.4,0.6,0.8,1.2,1.2,1.7
			c-0.7,0.9-1.4,1.8-2,2.7c7.2,2.1,12.5,8.8,12.5,16.7s-5.3,14.6-12.5,16.7c5.5,8.5,15.1,14.2,26,14.2c17.1,0,30.9-13.8,30.9-30.9
			C380.3,275.6,366.5,261.8,349.4,261.8z"/>
	</g>
	<g>
		<path d="M105.2,416.6v-11.1l49,0.1c2.5,0,4.4-0.6,5.7-1.7c1.3-1.2,2-3.1,2-5.7c0-2.6-0.7-4.5-2-5.7c-1.3-1.2-3.3-1.7-5.7-1.7
			h-30.5c-6.3,0-11.2-1.5-14.7-4.6c-3.5-3-5.2-7.5-5.2-13.4c0-5.9,1.7-10.4,5.2-13.4c3.5-3,8.4-4.6,14.7-4.6h47.9v11.1l-46.4-0.1
			c-2.4,0-4.3,0.6-5.7,1.7c-1.4,1.1-2,2.9-2,5.3c0,2.4,0.7,4.2,2,5.3c1.4,1.1,3.3,1.7,5.7,1.7h30.5c6.3,0,11.2,1.5,14.7,4.6
			c3.5,3.1,5.2,7.7,5.2,13.8c0,6-1.7,10.6-5.2,13.7c-3.5,3.1-8.4,4.7-14.7,4.7H105.2z"/>
		<path d="M204.4,416.6c-7.6,0-13.5-1.9-17.8-5.7c-4.3-3.8-6.4-9.3-6.4-16.7c0-7.4,2.1-13,6.4-16.7c4.3-3.8,10.2-5.7,17.8-5.7h15.8
			c7.6,0,13.5,1.9,17.8,5.7c4.3,3.8,6.4,9.4,6.4,16.7c0,7.3-2.1,12.9-6.4,16.7c-4.3,3.8-10.2,5.7-17.8,5.7H204.4z M204.4,406.8h15.8
			c3.7,0,6.5-1,8.5-3.1c2-2,2.9-5.2,2.9-9.5c0-4.3-1-7.5-2.9-9.5c-2-2-4.8-3.1-8.5-3.1h-15.8c-3.7,0-6.5,1-8.5,3.1
			c-2,2-2.9,5.2-2.9,9.5c0,4.3,1,7.4,2.9,9.5C197.9,405.8,200.7,406.8,204.4,406.8z"/>
		<path d="M251.2,435.4v-63h31.5c7.6,0,13.5,1.9,17.8,5.6c4.3,3.7,6.4,9.2,6.4,16.3c0,7.2-2.1,12.6-6.4,16.4
			c-4.3,3.7-10.2,5.6-17.8,5.6h-19.2v19.2H251.2z M282.7,382.1h-19.2v24.3h19.2c3.7,0,6.5-1,8.5-3c2-2,2.9-5.1,2.9-9.2
			c0-4-1-7.1-2.9-9.1C289.2,383.1,286.4,382.1,282.7,382.1z"/>
		<path d="M313.7,416.2v-60.9H326v17h25.9c5,0,8.6,1.2,10.9,3.7c2.3,2.5,3.4,5.7,3.4,9.8v30.4H354v-29c0-3.4-1.7-5.1-5.1-5.1H326
			v34.1H313.7z"/>
		<path d="M396.9,416.6c-7.6,0-13.5-1.9-17.8-5.7c-4.3-3.8-6.4-9.3-6.4-16.7c0-7.4,2.1-13,6.4-16.7c4.3-3.8,10.2-5.7,17.8-5.7h15.8
			c7.6,0,13.5,1.9,17.8,5.7c4.3,3.8,6.4,9.4,6.4,16.7c0,7.3-2.1,12.9-6.4,16.7c-4.3,3.8-10.2,5.7-17.8,5.7H396.9z M396.9,406.8h15.8
			c3.7,0,6.5-1,8.5-3.1c2-2,2.9-5.2,2.9-9.5c0-4.3-1-7.5-2.9-9.5c-2-2-4.8-3.1-8.5-3.1h-15.8c-3.7,0-6.5,1-8.5,3.1
			c-2,2-2.9,5.2-2.9,9.5c0,4.3,1,7.4,2.9,9.5C390.4,405.8,393.2,406.8,396.9,406.8z"/>
		<path d="M443.6,416.2v-43.9h38.2c5,0,8.6,1.2,10.9,3.7c2.3,2.5,3.4,5.7,3.4,9.8v30.4h-12.3v-29c0-3.4-1.7-5.1-5.1-5.1H456v34.1
			H443.6z"/>
	</g>
</g>
</svg>
