<?xml version="1.0" encoding="utf-8"?>
<!-- Generator: Adobe Illustrator 24.3.0, SVG Export Plug-In . SVG Version: 6.00 Build 0)  -->
<svg version="1.1" id="图层_1" xmlns="http://www.w3.org/2000/svg" xmlns:xlink="http://www.w3.org/1999/xlink" x="0px" y="0px"
	 viewBox="0 0 600 600" style="enable-background:new 0 0 600 600;" xml:space="preserve">
<style type="text/css">
	.st0{fill:#FFFFFF;}
	.st1{fill:#58C5DA;}
	.st2{fill:#F9E65B;}
</style>
<g>
	<g>
		<path class="st1" d="M144.4,325.2h-34.5c-0.5,0-0.9,0-1.4,0.1c-0.3-0.7-0.6-1.4-0.9-2.1c-2.2,2-5,3.2-8.1,3.2
			c-2.1,0-4.1-0.6-5.9-1.6c-2.7-1.6-4.7-4.1-5.5-7.2c-0.5-1.9-0.5-3.9-0.1-5.8c-11.1,0.5-19.9,9.6-19.9,20.8
			c0,11.5,9.3,20.9,20.9,20.9c8.9,0,16.5-5.6,19.5-13.4c0.4,0.1,0.9,0.1,1.4,0.1h34.5c4.2,0,7.6-3.4,7.6-7.6
			C151.9,328.6,148.5,325.2,144.4,325.2z"/>
		<path class="st2" d="M127.1,246.4c-11.5,0-20.9,9.3-20.9,20.9c0,5,1.7,9.5,4.6,13.1c-0.3,0.3-0.6,0.7-0.8,1.1l-17.2,29.5
			c-1,1.7-1.3,3.8-0.8,5.7c0.5,2,1.8,3.6,3.5,4.6c1.2,0.7,2.5,1,3.8,1c2.7,0,5.2-1.4,6.6-3.8l17.2-29.5c0.2-0.4,0.4-0.8,0.6-1.3
			c0.8,0.1,1.6,0.2,2.4,0.3c-0.5-1.9-0.5-3.9,0.1-5.8c0.8-3,2.7-5.6,5.5-7.2c1.8-1,3.8-1.6,5.9-1.6c3,0,5.9,1.2,8.1,3.2
			c1.5-2.9,2.3-6.1,2.3-9.5C148,255.7,138.6,246.4,127.1,246.4z"/>
		<path class="st1" d="M165.2,311.9c-1.1,0-2.3,0.1-3.4,0.3c-0.2-0.4-0.3-0.9-0.6-1.3l-17.2-29.5c-1.4-2.3-3.9-3.8-6.6-3.8
			c-1.3,0-2.7,0.4-3.8,1c-1.7,1-3,2.7-3.5,4.6c-0.5,2-0.2,4,0.8,5.7l17.2,29.5c0.2,0.4,0.5,0.8,0.8,1.1c-0.5,0.6-0.9,1.2-1.3,1.8
			c4.9,1.4,8.4,5.9,8.4,11.3c0,5.3-3.6,9.8-8.4,11.3c3.7,5.8,10.2,9.6,17.5,9.6c11.5,0,20.9-9.3,20.9-20.9
			C186.1,321.2,176.8,311.9,165.2,311.9z"/>
	</g>
	<g>
		<path d="M214.7,317.4v-9l39.7,0.1c2,0,3.6-0.5,4.7-1.4c1.1-0.9,1.6-2.5,1.6-4.6c0-2.1-0.5-3.6-1.6-4.6c-1.1-0.9-2.6-1.4-4.7-1.4
			h-24.7c-5.1,0-9.1-1.2-11.9-3.7c-2.8-2.5-4.2-6.1-4.2-10.9c0-4.8,1.4-8.4,4.2-10.9c2.8-2.5,6.8-3.7,11.9-3.7h38.8v9l-37.7-0.1
			c-2,0-3.5,0.4-4.6,1.3c-1.1,0.9-1.7,2.3-1.7,4.3c0,2,0.6,3.4,1.7,4.3c1.1,0.9,2.6,1.3,4.6,1.3h24.7c5.1,0,9.1,1.3,11.9,3.8
			c2.8,2.5,4.2,6.2,4.2,11.2c0,4.9-1.4,8.6-4.2,11.1c-2.8,2.5-6.8,3.8-11.9,3.8H214.7z"/>
		<path d="M295.1,317.4c-6.2,0-11-1.5-14.4-4.6c-3.5-3.1-5.2-7.6-5.2-13.5c0-6,1.7-10.5,5.2-13.6c3.5-3.1,8.3-4.6,14.4-4.6h12.8
			c6.2,0,11,1.5,14.4,4.6c3.5,3.1,5.2,7.6,5.2,13.6c0,5.9-1.7,10.4-5.2,13.5c-3.5,3.1-8.3,4.6-14.4,4.6H295.1z M295.1,309.5h12.8
			c3,0,5.3-0.8,6.9-2.5c1.6-1.7,2.4-4.2,2.4-7.7c0-3.5-0.8-6.1-2.4-7.7c-1.6-1.7-3.9-2.5-6.9-2.5h-12.8c-3,0-5.3,0.8-6.9,2.5
			c-1.6,1.7-2.4,4.2-2.4,7.7c0,3.5,0.8,6,2.4,7.7C289.9,308.7,292.1,309.5,295.1,309.5z"/>
		<path d="M333.1,332.6v-51.1h25.6c6.2,0,11,1.5,14.4,4.6c3.5,3,5.2,7.4,5.2,13.2c0,5.8-1.7,10.2-5.2,13.3c-3.5,3-8.3,4.6-14.4,4.6
			h-15.5v15.5H333.1z M358.6,289.5h-15.5v19.7h15.5c3,0,5.3-0.8,6.9-2.5c1.6-1.6,2.4-4.1,2.4-7.4c0-3.3-0.8-5.7-2.4-7.4
			C363.9,290.3,361.6,289.5,358.6,289.5z"/>
		<path d="M383.8,317.1v-49.4h10v13.8h21c4.1,0,7,1,8.9,3c1.9,2,2.8,4.6,2.8,7.9v24.7h-10v-23.5c0-2.8-1.4-4.1-4.1-4.1h-18.5v27.6
			H383.8z"/>
		<path d="M451.3,317.4c-6.2,0-11-1.5-14.4-4.6c-3.5-3.1-5.2-7.6-5.2-13.5c0-6,1.7-10.5,5.2-13.6c3.5-3.1,8.3-4.6,14.4-4.6h12.8
			c6.2,0,11,1.5,14.4,4.6c3.5,3.1,5.2,7.6,5.2,13.6c0,5.9-1.7,10.4-5.2,13.5c-3.5,3.1-8.3,4.6-14.4,4.6H451.3z M451.3,309.5h12.8
			c3,0,5.3-0.8,6.9-2.5c1.6-1.7,2.4-4.2,2.4-7.7c0-3.5-0.8-6.1-2.4-7.7c-1.6-1.7-3.9-2.5-6.9-2.5h-12.8c-3,0-5.3,0.8-6.9,2.5
			c-1.6,1.7-2.4,4.2-2.4,7.7c0,3.5,0.8,6,2.4,7.7C446,308.7,448.3,309.5,451.3,309.5z"/>
		<path d="M489.2,317.1v-35.6h31c4.1,0,7,1,8.9,3c1.9,2,2.8,4.6,2.8,7.9v24.7h-10v-23.5c0-2.8-1.4-4.1-4.1-4.1h-18.5v27.6H489.2z"/>
	</g>
</g>
</svg>
